# xmcd
#
# Track frame offsets:
#	150
#	13847
#	23552
#	35228
#	69539
#	82013
#	92419
#	111515
#	126795
#	137388
#	150315
#	163197
#	183378
#
# Disc length: 2625
#
# Revision: 1
# Processed by: cddbd v1.5.1PL0 Copyright (c) Steve Scherf et al.
# Submitted via: CDex 1.51
# Normalized: r0:TDELIM( - ),TSWAP
#
DISCID=a50a3f0d
DTITLE=Various Artist - Northgate Noise - Vol 4
DYEAR=1900
DGENRE=Country
TTITLE0=Gary Stewart - Your Place or Mine
TTITLE1=Red Steagall - Lone Star Beer and Bob Wills Music
TTITLE2=Conway Twitty - Don't Call Him a Cowboy
TTITLE3=Robert Earl Keen, Jr. - The Road Goes on Forever
TTITLE4=Waylon Jennings - I'm a Ramblin Man
TTITLE5=Dave Dudley - Six Days on the Road
TTITLE6=Jerry Jeff Walker - Up Against The Wall, Redneck Mother
TTITLE7=John Conlee - Rose Colored Glasses
TTITLE8=Jerry Reed - Amos Moses
TTITLE9=Bobby Helms - Fraulein
TTITLE10=Tom T. Hall - Faster Horses
TTITLE11=Dub Miller - The Fightin' Texas Aggie Song
TTITLE12=Ernest Tubb and Red Foley - Good Night Irene
EXTD=
EXTT0=
EXTT1=
EXTT2=
EXTT3=
EXTT4=
EXTT5=
EXTT6=
EXTT7=
EXTT8=
EXTT9=
EXTT10=
EXTT11=
EXTT12=
PLAYORDER=
